<svg version="1.2" xmlns="http://www.w3.org/2000/svg" viewBox="0 0 250 409" width="250" height="409">
	<title>image</title>
	<style>
		.s0 { fill: #000000 } 
		.s1 { fill: #009b73 } 
	</style>
	<path id="Layer" fill-rule="evenodd" class="s0" d="m0.3 408v-44.7h18.9q4.4 0 7.5 1.6 3.2 1.5 4.9 4.3 1.7 2.7 1.7 6.7 0 3.1-1.7 5.8-0.7 1.2-1.9 2.2 1.1 0.7 1.9 1.5 2 1.8 2.7 4.1 0.8 2.3 0.8 4.8 0 6.4-4.2 10.1-4.2 3.6-11.7 3.6zm29.4-24.1q-1.5-0.9-3.3-1.6v3.7q1.9-0.9 3.3-2.1zm-21.3 16.9h11.5q3.2 0 5.1-1.7 1.9-1.8 1.9-4.8 0-2.9-1.9-4.7-1.9-1.8-5.1-1.8h-11.5zm0-20.2h11.1q2.5 0 4-1.4 1.5-1.5 1.5-3.9 0-2.3-1.5-3.7-1.5-1.4-4-1.4h-11.1zm54.2 28.1q-5.1 0-8.9-2.3-3.7-2.2-5.8-6.1-2.1-3.9-2.1-8.7 0-4.9 2.1-8.7 2.1-3.8 5.8-6 3.7-2.3 8.3-2.3 3.8 0 6.7 1.3 2.9 1.3 5 3.5 2 2.2 3.1 5.1 1.1 2.8 1.1 6.1 0 0.8-0.2 1.7 0 0.9-0.3 1.6h-23.5q0.2 1.7 0.8 3.1 1.1 2.3 3.1 3.6 2.1 1.2 4.8 1.2 2.7 0 4.6-1.1 1.9-1.2 3-3.1l6.3 3.1q-0.9 2.4-3 4.2-2 1.8-4.8 2.8-2.8 1-6.1 1zm-8.7-14.8q-0.1-1.1 0-2.2-0.1-2.1 0.2-3.8h-1.9v6zm15.6-6q0.1 1.3-0.2 2.8l3.7-2.8zm-0.5-2.1q-0.7-2.2-2.6-3.4-1.8-1.3-4.4-1.3-2.4 0-4.4 1.3-1.9 1.2-2.9 3.6-0.4 0.9-0.6 1.9h15.4q-0.1-1.1-0.5-2.1zm30.7 22.9q-3.5 0-6-1.1-2.5-1.2-3.9-3.3-1.4-2.1-1.4-4.9 0-2.7 1.2-4.8 1.2-2.2 3.8-3.6 2.5-1.5 6.3-2.1l9.7-1.6v-1q0-2.1-1.6-3.5-1.7-1.4-4.4-1.4-2.5 0-4.5 1.3-1.9 1.4-2.8 3.6l-6.4-3.1q1-2.6 3-4.5 2.1-1.9 4.9-3 2.8-1.1 6.1-1.1 4.1 0 7.1 1.5 3.1 1.5 4.8 4.1 1.7 2.6 1.7 6.1v21.7h-7.4v-3.4q-0.7 0.7-1.4 1.2-1.7 1.4-3.9 2.2-2.2 0.7-4.9 0.7zm9.7-21.4v6l1-0.1v-6zm-8.2 7.4q-2.4 0.4-3.5 1.5-1.1 1.1-1.1 2.8 0 1.7 1.2 2.7 1.3 1 3.3 1 2.4 0 4.3-1.1 1.9-1 2.9-2.9 1.1-1.9 1.1-4.1v-1.3zm8.6 9.8q1-1 1.7-2.3l-1.7 0.2zm20.7 3.4v-32.7h7.4v4.1q1-1.9 2.8-3 2.7-1.8 6.3-1.8 4.1 0 7.1 2.1 2 1.4 3 3.2 1.3-2.1 3.3-3.3 3-2 6.9-2 3.4 0 6.1 1.6 2.8 1.5 4.4 4.4 1.5 2.7 1.5 6.4v21h-7.8v-19.2q0-2.1-0.8-3.7-0.8-1.5-2.2-2.4-1.4-0.9-3.3-0.9-1.9 0-3.3 0.9-1.5 0.9-2.3 2.4-0.7 1.6-0.7 3.7v19.2h-7.9v-19.2q0-2.1-0.8-3.7-0.8-1.5-2.2-2.4-1.4-0.9-3.3-0.9-1.9 0-3.3 0.9-1.4 0.9-2.2 2.4-0.8 1.6-0.8 3.7v19.2zm7.4-28.6q-0.5 1-0.9 2.2l0.9 1.3zm19.2 0.5q-0.7 1.1-1.3 2.5l2.2-0.2q-0.3-1.2-0.9-2.3zm31.8 28.1l15.5-44.7h10.5l15.4 44.7h-8.8l-3.2-9.6h-17.3l-3.2 9.6zm14.4-16.8h12.6l-6.3-18.9zm6.3-18.8l1.1-3.4h-2.3zm31.7 35.6v-44.7h8.2v44.7z"/>
	<path id="Layer" fill-rule="evenodd" class="s1" d="m128.3 0.7c-56.9 0-103.6 46.7-103.6 103.6v103.7c57 0 103.6-46.7 103.6-103.7zm-45.2 212.2l-0.1 0.1q-4.1 1.8-8 3.9-0.9 0.5-1.8 1-0.2 0.1-0.4 0.3-0.8 0.4-1.6 0.9l-0.4 0.3q-0.9 0.5-1.9 1.1l-0.3 0.3q-0.8 0.5-1.6 1l-0.5 0.3q-0.9 0.6-1.8 1.3l-0.1 0.1q-0.9 0.6-1.7 1.2l-0.4 0.3q-0.9 0.7-1.8 1.4-0.9 0.7-1.7 1.4l-0.5 0.3q-0.7 0.7-1.5 1.3l-0.2 0.2q-0.8 0.7-1.6 1.4l-0.4 0.4q-0.7 0.6-1.4 1.3-0.1 0.1-0.3 0.3-0.8 0.7-1.6 1.5-0.1 0.2-0.3 0.4-0.7 0.6-1.3 1.3-0.2 0.2-0.3 0.3-0.8 0.8-1.5 1.6l-0.3 0.4q-0.6 0.6-1.2 1.3l-0.4 0.4q-0.7 0.9-1.4 1.7-0.1 0.2-0.2 0.3-0.6 0.7-1.2 1.5l-0.4 0.4q-0.7 0.9-1.3 1.8l-0.2 0.2q-0.6 0.8-1.1 1.6l-0.4 0.5q-0.6 0.8-1.2 1.7l-0.1 0.1q-0.6 0.9-1.2 1.8l-0.3 0.5q-0.5 0.8-1 1.7l-0.2 0.2q-0.5 1-1.1 1.9-0.1 0.3-0.3 0.5-0.4 0.8-0.9 1.7l-0.2 0.3q-0.5 1-1 2-0.2 0.2-0.3 0.4-0.4 0.8-0.8 1.7l-0.2 0.4q-0.5 1-1 2l-0.1 0.4q-0.4 0.9-0.8 1.7l-0.2 0.6q-0.4 1-0.9 2l-0.1 0.4q-0.3 0.9-0.7 1.8l-0.2 0.5q-0.4 1.1-0.7 2.1l-0.1 0.1q-0.3 1-0.6 2.1l-0.2 0.6q-0.3 1-0.6 2l-0.1 0.1q-0.3 1.1-0.6 2.2l-0.1 0.6q-0.2 0.9-0.5 1.9 0 0.2-0.1 0.4-0.2 1.1-0.5 2.2 0 0.2-0.1 0.5-0.2 0.9-0.3 1.9l-0.1 0.4q-0.2 1.2-0.4 2.3l-0.1 0.5q-0.1 0.9-0.2 1.9l-0.1 0.5q-0.1 1.2-0.3 2.3 0 0.2 0 0.5-0.1 0.9-0.2 1.9v0.6q-0.1 1.2-0.2 2.3v0.3q0 1.1-0.1 2.1v0.6q0 1.2 0 2.4h103.6c57 0 103.6-46.6 103.6-103.6 0-6.7-0.7-13.3-1.9-19.7-7.8-40-38.8-72-78.3-81.2v1.1c0 30.6-11.2 58.6-29.9 80.3-9.8 11.4-21.7 21-35 28.2z"/>
</svg>