<svg version="1.2" xmlns="http://www.w3.org/2000/svg" viewBox="0 0 250 409" width="260" height="409">
	<style>
		.s0 {
			fill: #ffffff
		}
	</style>
	<path transform="scale(1.2)" id="Layer" fill-rule="evenodd" class="s0"
		d="m128.4 0.7c-57 0-103.6 46.7-103.6 103.6v103.7c57 0 103.6-46.7 103.6-103.7zm-45.3 212.2l-0.1 0.1q-4.1 1.8-8 3.9-0.9 0.5-1.7 1-0.2 0.1-0.5 0.3-0.7 0.4-1.5 0.9l-0.5 0.3q-0.9 0.5-1.8 1.1l-0.4 0.3q-0.8 0.5-1.5 1l-0.5 0.3q-0.9 0.6-1.8 1.3l-0.2 0.1q-0.8 0.6-1.6 1.2l-0.5 0.3q-0.9 0.7-1.7 1.4h-0.1q-0.8 0.7-1.7 1.4l-0.4 0.3q-0.8 0.7-1.5 1.3l-0.2 0.2q-0.9 0.7-1.7 1.4l-0.4 0.4q-0.7 0.6-1.4 1.3-0.1 0.1-0.3 0.3-0.7 0.7-1.5 1.5-0.2 0.2-0.4 0.4-0.6 0.6-1.3 1.3-0.1 0.2-0.3 0.3-0.8 0.8-1.5 1.6l-0.3 0.4q-0.6 0.6-1.2 1.3l-0.4 0.4q-0.7 0.9-1.4 1.7-0.1 0.2-0.2 0.3-0.6 0.7-1.2 1.5l-0.4 0.4q-0.6 0.9-1.3 1.8l-0.1 0.2q-0.6 0.8-1.2 1.6l-0.4 0.5q-0.6 0.8-1.2 1.7v0.1q-0.7 0.9-1.3 1.8l-0.3 0.5q-0.5 0.8-1 1.7l-0.2 0.2q-0.5 1-1.1 1.9-0.1 0.3-0.3 0.5-0.4 0.8-0.9 1.7l-0.2 0.3q-0.5 1-1 2-0.2 0.2-0.3 0.4-0.4 0.8-0.8 1.7l-0.2 0.4q-0.5 1-1 2l-0.1 0.4q-0.4 0.9-0.8 1.7l-0.2 0.6q-0.4 1-0.9 2l-0.1 0.4q-0.3 0.9-0.7 1.8l-0.2 0.5q-0.4 1.1-0.7 2.1l-0.1 0.1q-0.3 1-0.6 2.1l-0.2 0.6q-0.3 1-0.6 2l-0.1 0.1q-0.3 1.1-0.6 2.2l-0.1 0.6q-0.2 0.9-0.5 1.9 0 0.2-0.1 0.4-0.2 1.1-0.5 2.2 0 0.2-0.1 0.5-0.2 0.9-0.3 1.9l-0.1 0.4q-0.2 1.2-0.4 2.3l-0.1 0.5q-0.1 0.9-0.2 1.9l-0.1 0.5q-0.1 1.2-0.3 2.3 0 0.2 0 0.5-0.1 0.9-0.2 1.9v0.6q-0.1 1.2-0.2 2.3v0.3q0 1.1-0.1 2.1v0.6q0 1.2 0 2.4h103.6c57 0 103.6-46.6 103.6-103.6 0-6.7-0.6-13.3-1.9-19.7-7.7-40-38.7-72-78.2-81.2v1.1c0 30.6-11.3 58.6-29.9 80.3-9.9 11.4-21.7 21-35.1 28.2z" />

</svg>